<svg id="Layer_1" data-name="Layer 1" xmlns="http://www.w3.org/2000/svg" viewBox="0 0 111.76 111.76"><defs><style>.cls-1{fill:#1c0c42;}.cls-2{fill:#fff;}</style></defs><circle class="cls-1" cx="55.88" cy="55.88" r="55.88" transform="translate(-23.15 55.88) rotate(-45)"/><path class="cls-2" d="M25,30.2v2.51H21.93v8.07H18.77V32.71H15.71V30.2Z"/><path class="cls-2" d="M33.05,30.2v4.21h3.76V30.2H40V40.78H36.81V36.84H33.05v3.94H29.91V30.2Z"/><path class="cls-2" d="M54.3,30.2v2.42H48.79v1.66h5v2.41h-5v1.68h5.66v2.41h-8.8V30.2Z"/><path class="cls-2" d="M43.73,54.75c0,3.19-2.31,5.3-5.79,5.3H33.41V49.47H38C41.47,49.47,43.73,51.57,43.73,54.75Zm-3.2,0A2.56,2.56,0,0,0,38,52H36.55v5.64h1.58C39.57,57.59,40.53,56.48,40.53,54.78Z"/><path class="cls-2" d="M56,58.36H51.69l-.64,1.69H47.82l4.52-10.58h3.23l4.36,10.58H56.58Zm-.83-2.29-1.27-3.46-1.3,3.46Z"/><path class="cls-2" d="M67.31,49.47l4.48,5.92V49.47h2.87V60.05H72L67.5,54.17v5.88H64.62V49.47Z"/><path class="cls-2" d="M85.49,52a2.73,2.73,0,0,0,0,5.45A3.8,3.8,0,0,0,88,56.22l1.81,1.93a6.37,6.37,0,0,1-4.48,2,5.41,5.41,0,1,1,.11-10.81,6.23,6.23,0,0,1,4.37,1.87L88,53.4A3.42,3.42,0,0,0,85.49,52Z"/><path class="cls-2" d="M103.35,49.47v2.42H97.84v1.66h5V56h-5v1.68h5.66v2.41H94.7V49.47Z"/><path class="cls-2" d="M24.72,68.74v2.42H19.65v2.11h4.71v2.41H19.65v3.64H16.51V68.74Z"/><path class="cls-2" d="M32.91,68.74v8h4.44v2.62H29.77V68.74Z"/><path class="cls-2" d="M53.29,74a5.47,5.47,0,0,1-5.77,5.44A5.45,5.45,0,0,1,41.76,74c0-3.1,2.44-5.37,5.76-5.37S53.29,70.93,53.29,74ZM45,74a2.69,2.69,0,0,0,2.6,2.79A2.62,2.62,0,0,0,50.07,74a2.59,2.59,0,0,0-2.5-2.76A2.65,2.65,0,0,0,45,74Z"/><path class="cls-2" d="M69.31,74a5.77,5.77,0,0,1-11.53,0c0-3.1,2.45-5.37,5.77-5.37S69.31,70.93,69.31,74ZM61,74a2.69,2.69,0,0,0,2.59,2.79A2.62,2.62,0,0,0,66.1,74a2.59,2.59,0,0,0-2.51-2.76A2.65,2.65,0,0,0,61,74Z"/><path class="cls-2" d="M80.62,79.32l-1.41-2.85H77.55v2.85H74.41V68.74h4.94c2.84,0,4.47,1.36,4.47,3.76A3.63,3.63,0,0,1,82,75.87l2.14,3.45Zm-3.07-5.27h1.8a1.45,1.45,0,1,0,0-2.89h-1.8Z"/></svg>